<?xml version="1.0" standalone="no"?>
<!DOCTYPE svg PUBLIC "-//W3C//DTD SVG 1.1//EN" "http://www.w3.org/Graphics/SVG/1.1/DTD/svg11.dtd" >
<svg xmlns="http://www.w3.org/2000/svg">
<metadata></metadata>
<defs>
<font id="12wbtregular" horiz-adv-x="1536" >
<font-face units-per-em="2048" ascent="1536" descent="-512" />
<missing-glyph horiz-adv-x="512" />
<glyph unicode="&#xd;" horiz-adv-x="512" />
<glyph unicode=" "  horiz-adv-x="512" />
<glyph unicode="&#x09;" horiz-adv-x="512" />
<glyph unicode="&#xa0;" horiz-adv-x="512" />
<glyph unicode="&#x1200;" horiz-adv-x="1799" d="M1781 806.5q18 -14.5 18 -40.5t-18 -40.5t-46 -14.5h-228l91 -158q9 -15 9 -33q0 -37 -33 -56q-13 -8 -31 -8q-39 0 -56 32l-129 223h-342l179 -329h241q27 0 45.5 -14.5t18.5 -39.5t-18.5 -40t-45.5 -15h-166l110 -193q8 -13 8 -32q0 -38 -31 -57q-15 -9 -32 -9 q-37 0 -57 33l-113 197l-92 -158q-17 -32 -56 -32q-18 0 -31 8q-33 19 -33 57q0 17 9 32l128 221l-173 301l-181 -313l120 -207q9 -15 9 -32q0 -37 -33 -57q-13 -8 -31 -8q-39 0 -56 32l-84 144l-109 -190q-18 -32 -54 -32q-18 0 -33 9q-33 17 -33 56q0 16 9 31l114 199 h-183q-27 0 -45.5 15t-18.5 40t18.5 39.5t45.5 14.5h257l179 329h-357l-128 -223q-17 -32 -56 -32q-18 0 -31 8q-33 19 -33 56q0 18 9 33l91 158h-228q-28 0 -46.5 15t-18.5 40t18.5 40t46.5 15h219l-82 150q-9 15 -9 33q0 19 9 35.5t24 25.5q13 7 28 7q40 0 59 -35 l120 -216h360l-171 328h-257q-27 0 -45.5 15t-18.5 40t18.5 40t45.5 15h183l-114 200q-9 15 -9 33q0 17 8.5 32.5t23.5 23.5q15 9 33 9q38 0 55 -32l109 -190l84 144q8 15 23 23t31 8q18 0 33 -9q33 -17 33 -56q0 -16 -9 -31l-120 -208l178 -308l171 296l-129 222 q-9 15 -9 32q0 37 33 56q13 8 32 8q38 0 55 -31l92 -160l114 198q18 32 55 32q17 0 33 -9q32 -18 32 -57q0 -19 -8 -32l-111 -194h166q27 0 45.5 -15t18.5 -40t-18.5 -40t-45.5 -15h-240l-172 -328h346l120 213q9 17 26 27.5t34 10.5q16 0 27 -7q15 -9 24 -25t9 -34t-9 -33 l-83 -152h220q28 0 46 -14.5z" />
<glyph unicode="&#x1201;" d="M1507 107q-29 -49 -78 -78t-108 -29h-1106q-59 0 -108 29t-78 78t-29 108v1106q0 59 29 108t78 78t108 29h1106q59 0 108 -29t78 -78t29 -108v-1106q0 -59 -29 -108zM971 1260l-213 -584h-3l-210 584h-300l393 -953h233l401 953h-301z" />
<glyph unicode="&#x1202;" horiz-adv-x="1831" d="M304 1102.5q59 128.5 161 230.5q115 115 262 174.5t303 59.5q157 0 304 -59.5t263 -174.5q115 -116 174.5 -263t59.5 -304q0 -156 -59.5 -303t-174.5 -262q-116 -116 -263 -175.5t-304 -59.5q-142 0 -277.5 50t-246.5 146l217 218q136 -107 308 -107q96 0 186.5 36.5 t161.5 107.5q72 72 109 162.5t37 186.5t-37 186.5t-109 162.5q-71 71 -162 108.5t-187 37.5q-97 0 -187.5 -37t-161.5 -109q-115 -115 -139 -274h246l-388 -477l-19 22l-381 445l231 3q14 140 73 268.5z" />
<glyph unicode="&#x1203;" horiz-adv-x="1741" d="M1397 1066q-24 -26 -78 -85.5t-77 -89.5q-35 -41 -66 -84q-3 -4 -9 -11.5t-12 -11.5q-20 -12 -53 -12q-10 0 -26 2q-28 4 -42 18q-3 5 -3 9q0 7 7 19q15 33 110 184q62 96 122 175q136 182 284 326q32 31 77 31q48 0 79 -33q31 -31 31 -77q0 -47 -33 -80l-10 -8l-5 -3 q-147 -112 -296 -269zM1488 741q0 -41 -4 -55q-32 -178 -108 -314q-100 -182 -259.5 -277t-365.5 -95t-365.5 95t-259.5 277q-83 149 -113 314q-2 7 -7.5 24t-5.5 31q0 80 63.5 149.5t179.5 120.5q102 45 234.5 69t275.5 24q189 0 350 -41l-75 -118q-130 26 -275 26 q-177 0 -315 -35.5t-215 -88.5t-80 -103l4 -26q17 -49 96.5 -97t211.5 -79.5t297 -31.5t297 31.5t212 79.5t97 97q1 9 1.5 15.5t1.5 10.5q-1 45 -71 97q36 45 85 101q113 -86 113 -201zM622 783q-23 0 -35.5 4.5t-12.5 6.5q18 62 63 99t103 37q59 0 105 -38.5t60 -99.5 q-33 -9 -63 -9q-27 0 -43 8q-19 36 -57 38q-40 0 -61 -38q-29 -8 -59 -8zM548 751.5q30 -35.5 41 -80.5q-33 -9 -64 -9q-33 0 -43 8q-19 36 -57 38q-39 0 -60 -38q-29 -8 -60 -8q-37 0 -48 11q19 63 65.5 100t105.5 36q27 -2 49 -9q41 -13 71 -48.5zM810 591q-35 0 -44 5.5 l-9 5.5q21 71 74 107q41 29 92 29q59 0 105 -38t61 -99q-22 -9 -57 -10q-37 0 -50 9q-20 37 -57 37q-38 2 -60 -37q-19 -8 -55 -9z" />
<glyph unicode="&#x1204;" horiz-adv-x="1532" d="M767 895q-4 0 -4 1q-18 12 -29 26q-12 13 -23 31q-21 41 -25 76q-2 16 -2 25q0 28 10 58q13 39 40 73q21 27 30 49q12 24 15 53q1 7 1 21q0 47 -19 106l-1 1v2q0 4 5 6q4 1 7 -1q12 -7 28 -25q14 -18 22 -32q27 -49 27 -97q0 -34 -10 -63q-14 -42 -41 -72 q-47 -58 -47 -127q0 -48 19 -103v-1q1 -3 -3 -7zM522 864q-4 0 -5 1q-11 7 -29 25q-11 14 -22 31q-21 36 -25 76q-2 16 -2 25q0 29 9 59q17 44 41 72q18 24 30 48q12 26 15 55q1 7 1 20q0 49 -19 106h-1v2q0 6 5 8q4 0 6 -1q16 -12 29 -26q11 -14 22 -31q26 -47 26 -100 q0 -33 -10 -60q-11 -38 -41 -73q-46 -60 -46 -127q0 -44 18 -103h1q2 -5 -3 -7zM931 997q-2 16 -2 24q0 27 10 60q14 41 41 72q19 26 29 48q12 26 15 55q1 7 1 22q0 47 -19 104q-3 8 4 10q5 0 7 -1q20 -16 28 -26q11 -12 23 -31q26 -52 26 -98q0 -33 -10 -62 q-13 -39 -40 -73q-40 -48 -46 -102q-2 -18 -2 -28q0 -45 19 -100q2 -5 -3 -7q-3 0 -4 1q-17 11 -28 25q-15 17 -23 31q-22 39 -26 76zM441 607q-68 -36 -120.5 -94t-84.5 -124h-65q43 102 122 181q73 75 160 107q10 13 37.5 38t63.5 45q65 36 131 36q57 0 108 -25q4 2 6 2 q1 0 11.5 1.5t27.5 1.5q82 0 138 -40q49 -36 67 -96q112 -24 203 -93q90 -72 127 -158h-66q-35 65 -103 115.5t-152 72.5q1 -25 -4 -62q59 -18 104.5 -51t69.5 -75h-74q-41 44 -114 68q-8 -28 -25 -68h-65q49 104 49 178q0 21 -2 31q-9 60 -50 90q-29 21 -70 26 q31 -35 43 -84q6 -27 6 -55q0 -84 -47 -186h-66q54 103 54 185q0 20 -5 43q-15 62 -75 94q-45 26 -94 26q-53 0 -104 -29q-18 -9 -13 -7h15q144 0 184 -84q13 -27 13 -61q0 -71 -59 -167h-71q28 37 49 83q-105 -23 -161 -83h-73q32 55 100 94.5t154 52.5q1 7 1 20 q0 20 -6 35l-2 3q-111 -16 -200.5 -71.5t-131.5 -133.5h-65q35 85 120 151.5t197 96.5q-21 5 -50 5h-1q-74 1 -142 -35zM1529 320q3 -6 3 -13q0 -10 -4 -17q-20 -30 -88.5 -82.5t-209.5 -95.5h-928q-100 30 -165.5 69t-95.5 68.5t-36 40.5q-5 8 -5 17q0 7 3 13q8 16 27 16 h1472q19 0 27 -16z" />
<glyph unicode="&#x1205;" horiz-adv-x="1531" d="M996.5 1094q-8.5 7 -17.5 13q-20 15 -33 20q-34 18 -64 18q-26 0 -45 -15q-25 -21 -60 -81l-24 -42q-29 -41 -60 -41q-18 0 -33.5 10t-23.5 27q-13 32 -15 86q-2 59 -5 74q-7 37 -28 48q-7 3 -14 3q-14 0 -44 -21l-29 -21q-46 -34 -92 -34t-100 46q-12 12 -12 30 q0 19 12 31t30 12t31 -12q23 -20 42 -20q17 0 39 16q12 8 17 13q36 25 56.5 35.5t47.5 10.5q32 0 59 -14.5t44 -40.5q22 -31 28 -94q2 -17 4 -53q27 51 59 83q30 29 67 42q24 9 49 9q20 0 36 -4q44 -8 94 -40q35 -24 54 -40l-59 -62q-2 1 -10.5 8zM1224 1229q11 13 30 13 q18 0 30 -12q51 -48 78.5 -116t27.5 -142q0 -82 -35 -147h-105q55 58 55 148q0 93 -52 162l-299 -310h-119zM161 965q0 36 16 65q19 34 56 53.5t83 19.5q60 0 116 -32q72 -40 102 -110q14 -33 14 -64q0 -34 -17 -65l-5 -7h-297q-68 62 -68 140zM221 970q0 -33 28 -50 q11 -7 26 -7t29.5 9t22.5 24q9 15 9 31q0 33 -28 49q-13 7 -27 7q-34 0 -52 -32q-8 -16 -8 -31zM1249 989q0 -17 -13 -27.5t-37.5 -10t-55.5 17.5l17.5 17.5t31 25.5t31.5 12q15 0 22 -16q4 -8 4 -19zM1055 848q0 16 14 38t28.5 38t19.5 21q9 -30 9 -61q0 -29 -10.5 -46 t-27.5 -17q-7 0 -15 3q-18 7 -18 24zM1226 863q-7 -7 -19 -7q-22 0 -41 21.5t-22 63.5q0 1 24.5 -7t44.5 -21.5t20 -32.5q0 -10 -7 -17zM1522 744q9 -12 9 -28q0 -9 -2 -14q-29 -91 -100.5 -170t-176.5 -137q-74 -40 -147 -64q14 -20 19 -31q3 -9 3 -18q0 -16 -7 -27 q-15 -22 -40 -22h-629q-24 0 -39 22q-8 13 -8 26q0 7 4 19q7 15 18 31q-73 24 -147 64q-104 58 -176 137t-101 170q-2 10 -2 14q0 16 9 28q14 20 39 20h1436q24 0 38 -20z" />
<glyph unicode="&#x1206;" horiz-adv-x="1117" d="M32 1432l-32 46l83 58l62 -90zM361 1230q-21 34 -21 72q0 37 18.5 68.5t50 50t68.5 18.5q41 0 75 -22t50 -58q69 46 153 46q75 0 138.5 -37t101 -100.5t37.5 -138.5q0 -41 -13 -83h-107q20 38 20 83q0 48 -24 88.5t-64.5 64.5t-88.5 24q-47 0 -87 -23t-64 -63t-25 -87 q-43 26 -95 26q-56 0 -101 -31.5t-65 -81.5h-104q11 44 31 76l-66 97l113 14l22 -32q26 19 47 29zM71 1376l113 14l70 -101l-114 -14zM1081 972q11 -8 15 -21q21 -67 21 -137q0 -89 -33.5 -172.5t-95.5 -149.5q-61 -65 -141 -105t-170 -51v-214l140 -19q50 -9 79.5 -30 t29.5 -66v-7h-621v7q0 38 28 63t81 33l140 19v214q-89 11 -169.5 51t-141.5 105q-62 66 -95.5 149.5t-33.5 172.5q0 70 21 137q4 13 15 21t24 8h883q13 0 24 -8zM220 814q0 -80 33.5 -151t93 -123.5t135.5 -79.5q-66 46 -107 143t-41 216q0 19 2 55h-111q-5 -33 -5 -60z M819 819q0 -91 -25 -171.5t-68.5 -135.5t-97.5 -73q104 3 192 54t139.5 136t51.5 185q0 27 -5 60h-190q3 -27 3 -55z" />
<glyph unicode="&#x1207;" horiz-adv-x="1135" d="M306 1156q-27 23 -107 82q-55 40 -80 62t-25 37q0 7 6 13q20 20 80 20q62 0 137 -22t133 -61q1 -18 -7 98q-5 55 -5 81q0 35 9 44q4 4 12 4q23 0 66 -32t83.5 -85t58.5 -114l16 12q48 34 109.5 50.5t121.5 16.5q49 0 86 -10.5t50 -29.5q4 -8 4 -10q0 -10 -13.5 -20.5 t-44.5 -27.5q-100 -56 -149 -113q-120 30 -278 32h-2q-140 -1 -261 -27zM1004 1015.5q131 -96.5 131 -253.5q0 -120 -61 -255t-133 -239t-113 -149q-59 -62 -121.5 -90t-138.5 -29q-77 1 -139.5 29t-121.5 90q-41 45 -113 149t-133 238.5t-61 254.5q0 158 131 254.5 t437 101.5q305 -5 436 -101.5zM495 845q0 -30 17 -39q7 -4 15 -4q18 0 38.5 16t35.5 41q20 32 20 64q0 30 -17 39q-5 4 -15 4q-18 0 -38.5 -16t-35.5 -41q-18 -32 -20 -64zM940 827q0 28 -17 38q-5 4 -15 4q-18 0 -38.5 -16t-35.5 -41q-20 -32 -20 -64q0 -29 17 -40 q8 -4 15 -4q18 0 38.5 16t35.5 42q20 31 20 65zM251 703.5q20 15.5 35 41.5q20 32 20 64q2 29 -17 40q-6 3 -15 3q-18 0 -38.5 -15.5t-35.5 -41.5q-20 -35 -20 -65q0 -27 17 -38q7 -4 15 -4q19 0 39 15.5zM682 628q0 29 -17 40q-10 4 -15 4q-19 0 -39 -15.5t-35 -41.5 q-20 -34 -20 -64q-2 -31 17 -40q5 -4 15 -4q18 0 38.5 16t35.5 41q18 32 20 64zM419 490q2 31 -17 40q-5 4 -15 4q-18 0 -38.5 -16t-35.5 -41q-20 -34 -20 -65q0 -28 17 -39q10 -4 15 -4q19 0 39 16t35 42q20 32 20 63zM911 476q0 31 -17 40q-7 4 -15 4q-19 0 -39 -15.5 t-35 -41.5q-20 -32 -20 -64q-2 -29 17 -40q8 -4 15 -4q18 0 38.5 16t35.5 41q18 34 20 64zM627 256q0 29 -17 39q-8 4 -15 4q-18 0 -38.5 -16t-35.5 -41q-20 -37 -20 -64q0 -31 17 -40q5 -4 15 -4q18 0 38.5 16t35.5 41q20 31 20 65z" />
<glyph unicode="&#x1208;" horiz-adv-x="1478" d="M1438.5 1066q-39.5 -76 -102.5 -109q1 -6 11.5 -136t21 -342t10.5 -367q0 -46 -35.5 -79t-84.5 -33q-33 0 -60.5 16t-44 41.5t-16.5 54.5q0 300 43 845q-63 33 -102.5 109t-39.5 171q0 81 29.5 149.5t80 109t110.5 40.5t110 -40t79.5 -109t29.5 -150q0 -95 -39.5 -171z M747 878q0 102 -24 195t-69 164q-41 64 -89.5 98t-99.5 34t-99.5 -34t-88.5 -98q-46 -71 -70 -164t-24 -195l1 -34h-143q-1 11 -1 34q0 122 30 235t86 201q60 95 140 146.5t169 51.5t169 -51.5t141 -146.5q56 -89 85.5 -201.5t29.5 -234.5v-34h-143v34zM914 751.5 q16 -16.5 16 -39.5q0 -98 -34.5 -193.5t-98.5 -171.5q-49 -59 -106 -96l30 -72l41 -100q5 -12 5 -24q0 -23 -16.5 -39t-39.5 -16h-492q-30 0 -46 24q-9 15 -9 31q0 12 4 21l41 101l30 73q-108 70 -173.5 194t-65.5 268q0 24 17 39q15 17 39 17h819q23 0 39 -16.5z" />
<glyph unicode="&#x1209;" horiz-adv-x="1537" d="M1096.5 1136.5q-0.5 6.5 -0.5 17.5q0 65 19.5 141t75.5 131q62 62 139 86t143 24h31q6 -6 18 -13q14 -9 14 -18q0 -54 -2.5 -92.5t-27 -105.5t-80.5 -116q-51 -61 -125 -77.5t-157 -16.5l-47 31q0 2 -0.5 8.5zM815 917q-8 8 -16 8q0 -4 -31 41t-55.5 105.5t-24.5 125.5 q0 17 1 26q14 69 56 128.5t87 100.5t45 37q12 12 24 12q13 0 23 -12q0 4 31 -41t55.5 -105t24.5 -124q0 -77 -39.5 -143.5t-88 -108.5t-61.5 -42q0 -7 -3.5 -10.5t-7.5 -4.5t-5 -1q-7 0 -15 8zM470 669q-36 42 -65 105.5t-29 134.5q0 70 31.5 132.5t70.5 108t39 41.5 q12 12 24 12q11 0 23 -12q0 4 39 -41.5t70.5 -108t31.5 -132.5t-31.5 -132.5t-70.5 -108t-39 -41.5q-12 -12 -16 -14t-15 -2q-1 0 -5 1t-7.5 4.5t-3.5 10.5q-11 0 -47 42zM1493 919q3 -5 3 -11q0 -8 -7 -15q0 -11 -38 -56t-98 -85t-131 -47q-11 -11 -15 -13t-16 -2 q-63 0 -122 24t-102 53t-43 32q-15 16 -15 47q5 0 26 26q52 58 108 102.5t132 59.5h47q90 0 161.5 -38.5t105.5 -70.5q1 -1 4 -6zM96 452.5q-34 83.5 -34 158.5q0 71 33 134.5t73 105.5t51 42q12 12 24 12q11 0 23 -12q0 4 39 -41.5t70.5 -108t31.5 -132.5q0 -58 -24 -124.5 t-57.5 -122.5t-59.5 -82l45 24q82 46 150 74t134 28q77 0 142 -35.5t126 -85.5q26 -21 30 -21v-47q-3 -2 -41.5 -41.5t-112.5 -77t-144 -37.5q-76 10 -160.5 47.5t-137.5 77.5l-172 -172q-12 -12 -23 -12q-12 0 -24 12l-78 78v47l172 172q-42 56 -76 139.5zM1041 673.5 q63 -31.5 106.5 -68.5t43.5 -41q12 -10 12 -23q0 -12 -12 -24q0 -4 -43.5 -41t-106.5 -68.5t-132 -31.5q-77 0 -142.5 35.5t-125.5 84.5q-26 21 -30 21v47q4 0 30 21q60 49 125.5 84.5t142.5 35.5q69 0 132 -31.5z" />
<glyph unicode="&#x1210;" horiz-adv-x="990" d="M987.5 146.5q2.5 -14.5 2.5 -23.5q0 -13 -4 -21q-18 -36 -71 -53.5t-126 -29.5q-115 -19 -296 -19q-178 0 -301 20q-69 11 -121.5 29.5t-68.5 53.5q-3 8 -2 15l6 55l6 52q38 358 58 537l10 87q6 56 20 166q5 41 8 52q8 29 38.5 50.5t69.5 30.5q-51 18 -44 50q0 4 4.5 16 t17.5 22q-47 50 -47 128q0 64 35 95q30 23 83 40q102 29 223 29q89 0 182 -16q65 -13 111.5 -33.5t56.5 -65.5q5 -25 5 -48q0 -82 -48 -130q13 -11 18 -22t5 -15q7 -32 -44 -50q39 -9 70 -31t38 -51q4 -22 5 -32l3 -22q14 -111 56 -491l10 -96q10 -85 28 -255 q1 -9 3.5 -23.5zM300 1441q-24 -12 -43 -27.5t-19 -29.5l1 -5q49 -11 119 -19v1q11 -1 51 -4.5t91 -3.5q72 0 133 8q14 2 55 7.5t63 10.5q1 2 1 5q0 15 -25 31.5t-69.5 30t-98.5 19.5q-30 3 -58 3q-42 0 -143 -12l-25 -2q-9 -1 -33 -13zM514 1452q8 -8 8 -19t-8 -19t-19 -8 t-19 8t-8 19t8 19t19 8t19 -8zM419 1425q8 -8 8 -19t-8 -19t-19 -8t-19 8t-8 19t8 19t19 8t19 -8zM609 1424q8 -8 8 -19t-8 -19t-19 -8t-19 8t-8 19t8 19t19 8t19 -8zM247 1051.5q-31 -20.5 -38 -48.5q1 5 -6 -44q-8 -74 -22 -220l-4 -44q-14 -141 -43 -467l-4 -48 q0 -8 2 -12q13 -25 49.5 -35.5t93.5 -16.5l30 -4q8 -1 42.5 -3.5t87.5 -2.5q122 0 251 15l36 3q55 3 89 11t47 33q3 7 2 12l-4 48q-30 340 -47 511q-14 146 -22 220q-1 7 -2 20.5t-4 23.5q-7 27 -37.5 48t-68.5 27h-359q-38 -6 -69 -26.5zM494 827q125 0 233 23l14 -144 l36 -426l4 -41q0 -2 -2 -10q-10 -20 -36.5 -27t-71.5 -10q-10 0 -28 -2q-95 -12 -193 -12q-42 0 -70 2t-35 3l-21 3q-45 4 -75 13t-40 30q-2 8 -2 10q2 26 4 41q16 213 36 426l14 144q108 -23 233 -23z" />
<glyph unicode="&#x1211;" horiz-adv-x="1188" d="M1073 1356.5q-43 -80.5 -124.5 -150.5t-198.5 -70q-68 0 -140 27q0 22 31 94.5t115 139.5t233 67q61 0 127 -13q0 -14 -43 -94.5zM469 1215q-55 62 -120 74l38 114q94 -40 151 -137q22 -37 41 -86q18 -53 24 -90l-50 -13q-32 80 -84 138zM1031.5 944.5 q73.5 -61.5 115 -147t41.5 -177.5q0 -40 -9 -81q-21 -104 -94 -223t-175.5 -201t-209.5 -82q-19 0 -37 3q-38 9 -69 27q-32 -18 -69 -27q-18 -3 -37 -3q-107 0 -209.5 82t-175.5 201t-94 223q-9 41 -9 81q0 92 41.5 177.5t115 147t166.5 83.5q26 3 52 3q117 0 219 -59 q102 59 219 59q26 0 52 -3q93 -22 166.5 -83.5zM372 188q9 0 9 12q0 17 -16 49q-77 150 -100 292q-7 42 -7 89q0 103 35 202q10 27 10 46q0 24 -16 24t-44 -25q-59 -53 -92 -122t-33 -142q0 -36 9 -74q17 -76 71.5 -165t129.5 -159q28 -27 44 -27z" />
<glyph unicode="&#x1212;" horiz-adv-x="1538" d="M1321 36q-32 -32 -78 -32h-3h-97q-145 -1 -326.5 -1.5t-348.5 -0.5q-170 0 -176 1q-41 5 -73 37t-32 73l-1 466q-89 77 -137.5 174.5t-48.5 204.5q0 123 56 231.5t161 187.5q213 159 552 159q204 0 363 -58q126 -46 217.5 -123.5t140 -178.5t48.5 -217q0 -106 -47.5 -203 t-137.5 -176v-466q0 -46 -32 -78zM1171 718q71 50 109 112.5t38 128.5q0 103 -68 184.5t-193 127.5q-124 45 -288 45q-266 0 -419 -115q-131 -98 -129 -243q0 -75 49 -145t137 -121v-468h725v468q18 10 39 26zM626 1035.5q-18 17.5 -18 42.5q0 24 18 41.5t43 17.5 q24 0 41 -16.5t17 -41.5t-17 -43t-42 -18q-24 0 -42 17.5zM460.5 865q-17.5 18 -17.5 43q0 24 17.5 41t42.5 17q24 0 41 -17t17 -43q0 -24 -17 -41.5t-42 -17.5q-24 0 -41.5 18zM718 823.5q-18 17.5 -18 41.5t17.5 42t42.5 18q24 0 41.5 -17.5t17.5 -43.5q0 -24 -17 -41 t-42 -17q-24 0 -42 17.5z" />
<glyph unicode="&#x1213;" horiz-adv-x="725" d="M574 1297q0 -62 19 -118l1 -4l6 -16q9 -22 33 -64l1 -2q4 -6 18 -32l15 -31q53 -119 58 -271q0 -4 -1 -7t-2 -4v-516l1 -27q0 -8 -2 -20q-14 -66 -54 -103q-55 -57 -134 -66h-1q-75 -17 -169 -15q-94 -2 -169 15h-1q-78 9 -133 66q-42 38 -56 103q-1 8 -1 47v516 q-1 1 -2 4t-1 7q5 155 57 271q8 18 16 31q2 5 17 32l2 2q24 42 33 64l6 16l2 4q18 57 18 118q-17 17 -17 42v138q0 25 17.5 42t43.5 17h335q26 0 43.5 -17t17.5 -42v-138q0 -23 -17 -42zM228.5 1364.5q7.5 -2.5 21.5 -2.5h225q14 0 21.5 2.5t7.5 11.5v67q0 10 -9 18.5 t-20 8.5h-225q-11 0 -20 -8.5t-9 -18.5v-67q0 -9 7.5 -11.5zM602 866q-19 97 -70 188q-16 25 -32 67l-3 6q-15 37 -23 86l-1 7l-3 23l-3 32h-15q-18 -1 -56 -1h-67q-38 0 -56 1h-2q-2 0 -6.5 -1t-6.5 0q0 -17 -3 -32q0 1 -3 -23v-6q-8 -49 -23 -86l-3 -6q-18 -46 -31 -67 q-55 -101 -72 -188q-11 -54 -11 -119v-515l-4 -1q0 -4 -1.5 -9.5t-0.5 -8.5l1 -2q3 -15 11 -30q27 -46 101 -60q28 -4 42 -5l31 -3q24 -2 37 -2l34 -1l33 1q12 0 38 2l30 3q14 1 42 5q73 14 101 60q6 10 11 30l-1 2v18l-4 1v515q0 65 -11 119zM160 764q-5 28 56 47 q60 19 147 19q81 0 140 -17q63 -19 63 -45q0 -30 -70 -47q-57 -16 -133 -16q-69 0 -126 14q-73 16 -77 45zM243.5 661q57.5 -10 118.5 -10q131 0 207 40v-453l-1 -1q0 -5 -4 -15q-15 -28 -90 -41q-46 -10 -112 -10q-65 0 -119 11q-32 7 -53 15.5t-31 24.5q-3 15 -3 16v453 q30 -20 87.5 -30z" />
<glyph unicode="&#x1214;" horiz-adv-x="2276" d="M1065.5 16.5q22.5 -16.5 49.5 -16.5h5q29 2 51 21.5t27 47.5l182 1009l155 -552q8 -27 30 -44t49 -17q24 0 44 11t31 32l85 155h518q35 0 59.5 25t24.5 59t-24.5 58.5t-59.5 24.5h-567q-23 0 -43 -11.5t-30 -31.5l-11 -19l-198 705q-7 27 -29.5 44t-50.5 17 q-30 0 -53.5 -19.5t-28.5 -49.5l-186 -1023l-161 538q-8 26 -30 42.5t-49 16.5q-26 0 -48 -14.5t-31 -39.5l-113 -299l-61 103q-24 40 -71 40h-547q-35 0 -59.5 -24.5t-24.5 -58.5t24.5 -59t59.5 -25h499l126 -211q24 -41 71 -41q27 0 48.5 15t30.5 39l86 230l190 -634 q8 -27 30.5 -43.5z" />
<glyph unicode="&#x1215;" horiz-adv-x="1517" d="M1111 1199q20 4 58 14q1 1 3 1h1h1l2 1q23 5 42 5q34 0 79 -14q19 -6 50 -23l1 -1l10 -6q76 -51 117.5 -143.5t41.5 -189.5q0 -93 -45 -168l-1 -2q0 -1 -1 -1q-47 -76 -119 -100q-64 -25 -125 -25q-73 0 -137 39q-49 29 -86 82l19 17l18 15q44 42 71 42q16 0 30 -14 q-8 21 -36 21q-16 0 -32 -7q-14 -5 -67 -37q-28 -16 -22 -13q-34 -22 -56 -33q-5 -5 -4 -3l-5 -1l-2 -2q-91 -36 -189 -53h-3l-2 -1l-12 -2h-3q-43 -7 -93 -7h-5q3 82 -19 157q-15 59 -43 109v1q6 2 8 4l3 1l1 0.5t1 1.5q104 51 230 71l52 7q21 0 65 -2l32 -1q30 -2 45 -2 q9 0 31 2t39.5 13.5t14.5 31.5q-11 -33 -50 -33q-19 0 -55 8q-14 4 -21 5l-15 3v2q1 2 1 6v1l1 2v2l3 18q8 34 20 62l2 3l1 3l13 25l3 3q23 38 63 69l14 10h1q26 16 60 26zM1377 816q0 49 -13 97q-17 69 -53.5 124.5t-80.5 81.5q-41 27 -83 27q-8 0 -11 -0.5t-4 -0.5 q1 0 25.5 -2t65.5 -34q36 -29 67.5 -83t47.5 -120q14 -56 14 -106q0 -76 -26 -125q-20 -42 -40 -58.5t-21 -18.5q1 1 23 12.5t51 58.5q38 55 38 147zM168 964h2l4 2h1q1 0 1 1q3 0 5.5 1t4.5 1q34 9 58 14q0 1 1 1h1l2 1h2l10 2q1 0 1.5 0.5t1.5 0.5h1q10 2 30 2 q66 0 133 -40q32 -21 59 -50q13 -14 28 -36q30 -56 50 -124q22 -85 22 -156q0 -13 -2 -37q0 -3 -1 -4q-2 -10 -2 -9q-14 -66 -54.5 -117.5t-100.5 -74.5q-1 -1 -4 -1h1l-2 -1q-3 0 -5 -1l-1 -1h-1l-9 -3l-30 -7q-30 -8 -45 -10h-2q-1 0 -1 -1q-20 -2 -28 -2q-37 0 -78 13 q-2 0 -3 1l-3 1l-6 2l-11 5q-48 20 -87 60q-53 56 -82 131.5t-29 155.5q0 43 9 85q6 30 20 62l1 2l1 4q48 96 135 126l1 1h1zM434 600q0 53 -12 96q-17 69 -54 124t-80 83q-41 26 -82 26q-9 0 -12 -0.5t-4 -0.5q45 0 91 -37q36 -29 67.5 -82.5t47.5 -118.5q14 -58 14 -108 q0 -74 -25 -124q-22 -44 -41.5 -59.5t-20.5 -16.5q1 1 23.5 13t50.5 57q37 58 37 148z" />
<glyph unicode="&#x1216;" horiz-adv-x="1455" d="M1455 83q0 -43 -43 -64q-17 -7 -34 -7q-47 0 -71 51l-282 591l-259 -589q-22 -53 -70 -53q-16 0 -33 6q-45 19 -45 72q0 20 8 41l209 580h-254l-40 -541q0 -37 -20.5 -62t-55.5 -25t-56 25t-21 62v667q0 23 13 46l385 590q30 49 74 49q16 0 35 -11q29 -18 29 -54 q0 -32 -21 -66l-207 -394h317q43 0 77.5 -35.5t52.5 -84.5l303 -754q9 -21 9 -40zM242 901.5q37 -21.5 59 -58.5t22 -81t-22 -81t-59 -58.5t-81 -21.5t-81 21.5t-58.5 58.5t-21.5 81t21.5 81t58.5 58.5t81 21.5t81 -21.5z" />
<glyph unicode="&#x1217;" horiz-adv-x="1530" d="M213.5 978.5q-36.5 36.5 -88.5 36.5q-33 0 -62 -17t-46 -45.5t-17 -62.5t17 -62.5t46 -45.5t62 -17q52 0 88.5 36.5t36.5 88.5t-36.5 88.5zM460 664.5q-7 -35.5 -13 -59.5q-8 -32 -28.5 -56t-51.5 -24q-27 0 -43.5 20.5t-16.5 45.5q0 4 2 14q9 39 9 76q0 35 -15 89 q-12 44 -12 67q0 14 3 32q16 81 104 79q27 -1 260 -62.5t474.5 -127.5t314.5 -86q43 -13 63 -30t20 -46q0 -10 -1 -16q-8 -54 -66 -54q-14 0 -29 3l-965 182q-2 -11 -9 -46.5z" />
<glyph unicode="&#x1218;" d="M60.5 872q-50.5 70 -50.5 158q0 73 36.5 135t98.5 98.5t136 36.5q73 0 135.5 -36.5t99 -98.5t36.5 -135q0 -46 -16 -89l-7 -16l-126 219l-212 -370q-80 28 -130.5 98zM1135 942l-74 -126l117 -214l-73 -72l-340 671l-236 -478l-126 219l-403 -706h1536z" />
<glyph unicode="&#x1219;" horiz-adv-x="1448" d="M1015 309.5q108 -43.5 172 -93t64 -78.5q0 -31 -76.5 -63t-209 -53.5t-291.5 -21.5q-162 0 -294.5 19.5t-207.5 51.5t-75 67q0 36 67.5 90t184 95.5t256.5 47.5q33 276 68 545q-25 -8 -46.5 -21.5t-35 -24t-16.5 -14.5q-7 -7 -17 -7q-16 0 -23 17q-17 33 -18.5 36.5 t-22 24.5t-52.5 35q-21 9 -48 9q-54 0 -87 -17.5t-34 -17.5q-8 -4 -12 -4q-3 0 -9 2q-10 4 -14 17q-1 6 -7 24t-19 41.5t-33 40.5q-25 20 -85 20q-30 0 -47.5 -3t-18.5 -3h-4q-13 0 -21 11q-3 6 -3 12q0 8 5 16q53 57 129 123.5t227 138.5t334 72q14 0 42 -2l21 -1 q23 95 41 93q15 -3 13 -100q183 -28 322.5 -129t212 -195t98.5 -143q3 -4 3 -11q0 -8 -5 -15q-7 -9 -18 -9q-2 0 -8 2q-1 0 -22 6t-54 6t-51 -11q-22 -12 -41 -33t-30.5 -38t-14.5 -22q-6 -11 -18 -13q-11 0 -21 8q0 2 -21 20t-52.5 33t-66.5 15t-66 -18t-52 -39.5 t-21 -24.5q-7 -9 -19 -9h-2q-12 0 -19 12q0 1 -17.5 28.5t-55.5 52.5l-52 -536h1l-14 -143l71 139q128 -14 236 -57.5zM751 1404q-186 -71 -292 -167q-53 -48 -94.5 -101.5t-66.5 -95.5t-25 -44q4 2 18.5 9t38 13t49.5 6q28 0 56 -9q37 -12 65 -38t45 -51.5t17 -28.5 q0 31 12 105t51 168q45 105 119 202q4 22 7 32zM1021 942q34 0 70 -20t64 -43.5t28 -25.5q0 6 -22.5 75t-59 150t-84.5 139q-86 106 -206 179q0 -14 -2 -42q36 -84 50 -184q13 -96 13 -205q0 -47 -2 -83t-3 -45q0 2 16.5 23t44.5 43.5t65 34.5q12 4 28 4z" />
<glyph unicode="&#x1220;" horiz-adv-x="1282" d="M1266 1552q4 -7 10 -33t6 -58q0 -18 -3 -38q-24 -139 -250 -288q-4 -3 -11 -3h-754q-6 0 -12 3q-225 148 -249 288q-3 20 -3 38q0 32 6 58t10 33q5 15 21 15h1208q16 0 21 -15zM1033 945q49 -63 95 -169.5t46 -231.5q0 -97 -35 -188t-100 -164l69 -94q16 -22 16 -48 q0 -40 -34 -65q-19 -16 -47 -16q-40 0 -66 32l-62 87q-125 -77 -274 -77q-151 0 -275 76l-62 -86q-26 -32 -66 -32q-27 0 -47 16q-34 23 -34 65q0 26 16 48l69 93q-64 72 -99.5 162.5t-35.5 190.5q0 126 46.5 232.5t97.5 171t72 81.5l16 17h605l17 -17q23 -21 72 -84z M819 237q82 48 130 130t48 178t-48 178t-130 130t-178 48q-97 0 -178.5 -48t-130 -130t-48.5 -179q0 -96 48.5 -177.5t130 -129.5t178.5 -48q96 0 178 48zM879 411q0 -8 -5 -16q-8 -14 -25 -14q-7 0 -10 1l-251 92q-28 10 -45 34t-17 53q0 17 6 33q10 28 34.5 45t53.5 17 q17 0 32 -6q19 -7 37 -23l182 -196q8 -8 8 -20z" />
<glyph unicode="&#x1221;" horiz-adv-x="1460" d="M1384.5 1169q37.5 -22 58 -60t17.5 -84l-64 -895q-3 -46 -28 -82.5t-64.5 -57.5t-86.5 -21h-430v504q0 25 -19.5 43t-44.5 18q-26 0 -45.5 -18t-19.5 -43v-504h-414q-46 0 -86.5 21t-65.5 58.5t-27 82.5l-65 890q-3 46 17.5 85t58 62t83.5 23h81q29 112 100 197 t172.5 132t217.5 47t217.5 -47t173 -132t100.5 -197h80q46 0 83.5 -22zM918 731q86 50 136.5 136t50.5 187q0 102 -50.5 188t-136.5 136.5t-188 50.5q-101 0 -187 -50.5t-136 -136.5t-50 -188q0 -101 50 -187t136 -136t187 -50q102 0 188 50zM730 1148q39 0 66.5 -27.5 t27.5 -66.5q0 -38 -27.5 -65t-66.5 -27q-38 0 -65.5 27t-27.5 65q0 20 7 34l-108 158q-4 8 -4 13q0 14 12 21q5 4 14 4q10 0 16 -6l137 -132q14 2 19 2z" />
<glyph unicode="&#x1222;" horiz-adv-x="1572" d="M0 1193q0 69 26.5 134t77.5 117q50 50 115.5 76.5t134.5 26.5q105 0 196 -59l-491 -490q-59 89 -59 195zM1218 1547q69 0 134 -26.5t116 -76.5q51 -52 77.5 -117t26.5 -134q0 -106 -59 -195l-491 490q91 59 196 59zM198 410.5q-52 117.5 -52 248.5q0 169 83.5 311.5 t226 226t311.5 83.5t311.5 -83.5t226 -226t83.5 -311.5q0 -124 -46.5 -236t-129.5 -198q-15 12 -33 12q-21 0 -37 -16q-15 -13 -15 -36q0 -16 7 -27q-163 -120 -367 -120q-188 0 -343 104l-140 -140q-15 -15 -37 -15q-21 0 -36 15q-16 16 -16 37q0 20 16 36l131 132 q-92 86 -144 203.5zM974 301q95 56 151 151t56 207q0 113 -56 208t-151 150.5t-207 55.5q-113 0 -208 -55.5t-150.5 -150.5t-55.5 -208q0 -112 55.5 -207t150.5 -151t208 -56q112 0 207 56zM955 547q0 -18 -12 -33q-15 -19 -40 -19q-19 0 -33 11l-162 130q-26 15 -26 45v103 q0 22 15.5 37t36.5 15q22 0 37 -15t15 -37v-78l149 -120q20 -15 20 -39zM1134 158q42 30 78 67l4 -4l145 -146q16 -15 16 -36q0 -22 -16 -37q-13 -15 -36 -15q-22 0 -37 15l-146 146q-4 4 -8 10z" />
<glyph unicode="&#x1223;" horiz-adv-x="1408" d="M1117.5 1243.5q135.5 -98.5 213 -248t77.5 -321.5q0 -191 -94.5 -353t-256.5 -257t-353 -95t-353 95t-256.5 257t-94.5 353q0 172 77.5 321t212.5 248t301 126v29h-57v169h339v-169h-57v-29q166 -27 301.5 -125.5zM990 180q131 77 208 208t77 286t-77 286t-208 207.5 t-286 76.5t-286 -76.5t-208 -207.5t-77 -286t77 -286t208 -208t286 -77t286 77zM692 1084q-43 0 -85 -9q-77 -17 -144 -62.5t-113 -112.5q-72 -106 -72 -237q0 -36 6 -72q13 -81 57.5 -153t112.5 -122l-22 -30q-75 51 -128 128t-72 167q-11 47 -11 103q0 138 71 254 q49 80 126.5 137.5t168.5 81.5q63 17 127 17q112 0 215 -49q-7 -2 -11 -6l-70 -65q-74 30 -156 30zM1013 1054q17 0 28 -12q10 -11 10 -27q0 -14 -8 -23l-210 -284q3 -9 3 -12q2 -16 2 -24q0 -35 -17.5 -65.5t-48 -49t-67.5 -18.5q-36 0 -67 17.5t-49.5 48.5t-18.5 70 q0 48 31.5 85.5t79.5 45.5q8 2 23 2q14 0 21 -2l261 238q11 10 27 10z" />
<glyph unicode="&#x1224;" horiz-adv-x="1715" d="M150.5 863q51.5 -72 134.5 -101q-80 10 -145 56t-102.5 116.5t-37.5 152.5q0 83 37.5 154t103 116.5t146.5 55.5q33 73 96 120q87 66 195 66q91 0 167.5 -47.5t117.5 -126.5q-38 46 -93 72.5t-116 26.5q-65 0 -121.5 -28.5t-95 -78.5t-51.5 -112h-10q-75 0 -138.5 -37.5 t-101 -101.5t-37.5 -140q0 -91 51.5 -163zM335 932.5q-16 18.5 -16 42.5q0 23 15.5 40t37.5 22q104 22 244 22l49 -1q2 0 3 -1q26 82 95 132q70 53 159 53q19 0 39 -3q108 -17 174 -106q51 -71 51 -156h3q169 -48 273 -103q36 -19 36 -58q0 -15 -8 -31t-23.5 -25.5 t-33.5 -9.5l-10 1l-1048 159q-24 4 -40 22.5zM1074 1005q-8 35 -28 63q-47 64 -126 64q-52 0 -91 -30q-30 -24 -45 -52q9 0 13 -1l116 -15q68 -10 161 -29zM1636 571q33 0 56 -22t23 -58q0 -26 -16 -47.5t-42 -29.5l-197 -54v-223q0 -37 -18.5 -68.5t-50.5 -49.5t-69 -18 h-846q-37 0 -68 18t-49 49.5t-18 68.5v223l-199 54q-27 8 -43 29.5t-16 47.5q0 35 23.5 57.5t55.5 22.5q11 0 23 -3l156 -43v145h1119v-144l154 42q11 3 22 3z" />
<glyph unicode="&#x1225;" horiz-adv-x="1557" d="M882 -9h-715q-45 0 -83.5 21.5t-61 58.5t-22.5 81v1075q0 43 22.5 80t61 58.5t83.5 21.5h198q13 20 34.5 32t45.5 12h34q11 58 56.5 97t106.5 39q60 0 105 -39t56 -97h34q25 0 46.5 -12t33.5 -32h198q46 0 84.5 -21.5t61.5 -58.5t23 -80v-454q-48 6 -73 6q-51 0 -103 -11 v421h-175v-120h-584v120h-174v-1022h598q35 -102 109 -176zM587 1475.5q-23 -22.5 -23 -54.5t23 -54.5t55 -22.5t54.5 23t22.5 54q0 32 -22.5 54.5t-54.5 22.5t-55 -22.5zM1384.5 617q79.5 -47 126 -127t46.5 -174t-46.5 -173.5t-126 -126.5t-173.5 -47t-174 47t-127 126.5 t-47 173.5t47 174t127 127t174 47t173.5 -47zM1345 540l-170 -293l-85 127l-106 -85l191 -195l262 283z" />
<glyph unicode="&#x1226;" horiz-adv-x="1597" d="M1400 1520.5q-24 40.5 -65.5 64.5t-89.5 24q-50 0 -91 -24t-65 -64.5t-24 -89.5t24 -90t65 -65.5t91 -24.5q48 0 89.5 24.5t65.5 65.5t24 90t-24 89.5zM812.5 1060.5q-33.5 -56.5 -78 -127t-78.5 -118.5q-36 -51 -36 -102q0 -75 77 -136q37 -27 146.5 -89t146.5 -82 q-18 -46 -70.5 -178.5t-72.5 -176.5q-16 -33 -16 -64q0 -54 46 -80q17 -10 36 -10q26 0 48.5 17.5t33.5 40.5q17 36 89.5 216t86.5 224q7 20 7 40q0 32 -16 58.5t-39 39.5q-25 13 -120 88q-75 57 -89 66q21 32 91 130.5t94 132.5q9 -15 42.5 -65t72 -98.5t58.5 -53.5 q20 -7 78 -11.5t112.5 -7t70.5 -2.5q27 0 45.5 22t18.5 43t-12.5 41t-40.5 24l-226 25q0 5 -16 54t-43 104t-63 90q-32 33 -102.5 79t-148.5 80q-152 65 -233 65q-15 0 -26 -3q-26 -7 -85.5 -43t-117 -77.5t-72.5 -58.5q-39 -39 -39 -73q0 -20 13 -34q12 -15 36 -15 q37 0 76 30q21 15 102.5 65t110.5 67l145 -64q-9 -16 -42.5 -72.5zM125 463q-67 0 -96 -29.5t-29 -74.5q0 -39 30 -63t69 -24l127 1l191 2q37 0 59.5 6t36 16t30.5 28t53.5 75.5t48.5 77.5q0 -1 -28 24t-47 49q-18 24 -29.5 48t-16.5 41.5l-7 24.5l-97 -202h-295z" />
<glyph unicode="&#x1227;" horiz-adv-x="1305" d="M224 1302.5q81 121.5 209 191.5t278 70q159 0 295.5 -78.5t217.5 -213t81 -292.5q0 -154 -72.5 -286t-194.5 -211v-242q0 -20 -15 -37t-36 -26l-515 -204q-8 -2 -11 -2q-11 0 -19.5 9t-8.5 21v370h-260h-14q-8 0 -10 3.5t-2 17.5v253l-117 79q-30 21 -30 50q0 10 4 17 l126 242q13 147 94 268.5zM841 861.5q12 -13.5 30.5 -25t41.5 -11.5q19 0 36 8q55 40 82 88t27 111q0 77 -45.5 141.5t-123.5 102.5t-170 38q-96 0 -179.5 -40t-130.5 -105q-35 -50 -35 -102q0 -50 29.5 -85t71.5 -35q29 0 56 17q0 1 0.5 0.5l0.5 -0.5q-4 -43 32 -65 t79.5 -15.5t55.5 38.5q12 -66 70 -83l71 -128q11 -19 32 -14l11 2q6 2 10 9q5 7 0 13l-64 156q0 -2 12 -15.5z" />
<glyph unicode="&#x1228;" horiz-adv-x="1613" d="M448 1202.5q-20 -20.5 -49 -20.5q-28 0 -48 20t-20 49v247q0 29 19.5 49t48.5 20t49 -20t20 -49v-247q0 -28 -20 -48.5zM1275.5 1202q-20.5 -20 -49.5 -20q-28 0 -48 20.5t-20 48.5v247q0 29 20 49t48 20q29 0 49.5 -20t20.5 -49v-247q0 -29 -20.5 -49zM1613 -31h-1613 v1470h308v-73q-47 -42 -47 -104q0 -37 18.5 -68.5t50 -50t69.5 -18.5q37 0 69 18.5t50.5 50t18.5 68.5q0 62 -47 104v73h646v-73q-47 -42 -47 -104q0 -37 18.5 -68.5t50 -50t68.5 -18.5q38 0 70 18.5t50.5 50t18.5 68.5q0 62 -47 104v73h295v-1470zM147 1034v-917h1319v917 h-1319zM494 689v165h166v-165h-166zM728 689v165h165v-165h-165zM961 689v165h166v-165h-166zM1195 689v165h165v-165h-165zM261 466v167h165v-167h-165zM494 466v167h166v-167h-166zM728 466v167h165v-167h-165zM961 466v167h166v-167h-166zM1195 466v167h165v-167h-165z M261 245v165h165v-165h-165zM494 245v165h166v-165h-166zM728 245v165h165v-165h-165zM961 245v165h166v-165h-166z" />
<glyph unicode="&#x1229;" horiz-adv-x="1681" d="M1664 1363q17 -20 17 -44q0 -4 -2 -14l-106 -664q-5 -26 -25 -43t-46 -17h-915l27 -158h786q30 0 51 -21.5t21 -51.5t-21 -51t-51 -21h-847q-26 0 -46.5 17t-24.5 43l-161 955l-129 129h-119q-30 0 -51.5 21.5t-21.5 51.5t21.5 51t51.5 21h148q30 0 51 -21l158 -158l2 1 h1177q34 0 55 -26zM476 1244l30 -182h147v182h-177zM796 1244v-182h132v182h-132zM1073 1244v-182h130v182h-130zM1348 1244v-182h147l29 182h-176zM531 919l32 -194h90v194h-122zM796 919v-194h132v194h-132zM1073 919v-194h130v194h-130zM1348 919v-194h92l31 194h-123z M783.5 184.5q36.5 -36.5 36.5 -89.5q0 -52 -36.5 -89t-89.5 -37q-34 0 -63 17t-46 46t-17 63t17 63t46 46t63 17q53 0 89.5 -36.5zM1368.5 184.5q36.5 -36.5 36.5 -89.5q0 -52 -36.5 -89t-89.5 -37q-52 0 -89 37t-37 89q0 53 37 89.5t89 36.5q53 0 89.5 -36.5z" />
<glyph unicode="&#x1230;" horiz-adv-x="1667" d="M633 178v1314q0 18 13 31t31 13h312q19 0 31.5 -13t12.5 -31v-1314h-400zM1167 178v824q0 18 13 31t31 13h312q18 0 31 -13t13 -31v-824h-400zM100 178v557q0 19 12.5 31.5t31.5 12.5h312q18 0 31 -12.5t13 -31.5v-557h-400zM-100 88v-88h1867v88h-1867z" />
<glyph unicode="&#x1231;" horiz-adv-x="1597" d="M1537.5 1067.5q59.5 -146.5 59.5 -302.5q0 -155 -59.5 -301.5t-175.5 -261.5q-114 -115 -260.5 -175t-302.5 -60t-303 60t-261 175q-115 115 -175 261.5t-60 301.5q0 156 60 302.5t175 260.5q114 115 260.5 174t302.5 59t302.5 -59t261.5 -174q116 -114 175.5 -260.5z M1052.5 772q73.5 66 73.5 200q0 93 -41 164t-116 110.5t-172 39.5q-46 0 -122 -15t-134 -42t-58 -62q0 -14 5 -24l39 -102q4 -15 15.5 -24.5t26.5 -9.5q12 0 38 11q48 19 81 29t75 10q102 0 102 -84q0 -45 -22.5 -69t-69.5 -42l-33 -10q-45 -12 -69.5 -27.5t-24.5 -46.5 v-194q0 -32 13 -45t45 -13h112q32 0 45.5 13t13.5 45v88q104 34 177.5 100zM842 144.5q35 21.5 55.5 57.5t20.5 78t-20.5 77.5t-55.5 56.5t-77 21q-43 0 -79.5 -20t-57.5 -55.5t-21 -79.5q0 -42 21.5 -78t57.5 -57.5t79 -21.5q42 0 77 21.5z" />
<glyph unicode="&#x1232;" horiz-adv-x="1598" d="M1199 76.5q184 107.5 291.5 291t107.5 400.5q0 216 -107.5 400t-291.5 291.5t-400 107.5q-217 0 -400.5 -107.5t-291 -291.5t-107.5 -400q0 -217 107.5 -400.5t291 -291t400.5 -107.5q216 0 400 107.5zM1116 1315.5q145 -85.5 230.5 -230.5t85.5 -317t-85.5 -317.5 t-230.5 -231t-317 -85.5t-317.5 85.5t-231 231t-85.5 317.5t85.5 317t231 230.5t317.5 85.5t317 -85.5zM334 708q0 85 -3 157h2q33 -78 62 -126l76 -140h86v359h-74v-104q0 -94 6 -149h-1q-31 72 -59 122l-74 131h-95v-359h74v109zM708 818v74h141v66h-222v-359h229v67h-148 v85h133v67h-133zM1097 754q9 46 16 85q2 18 4 26h1q7 -59 17 -111l30 -155h89l92 359h-83l-29 -146q-6 -32 -8 -48q-10 -52 -13 -77h-1q-8 62 -19 121l-29 150h-86l-30 -146q-15 -67 -23 -126h-1q1 -4 -11 64l-11 61l-27 147h-87l85 -359h89z" />
<glyph unicode="&#x1233;" horiz-adv-x="2400" d="M1524 1366l-84 -240h816l144 408h-2016l-60 -168h1200zM1356 802l-84 -240h828l132 408h-2016l-60 -168h1200zM1200 238l-84 -240h816l144 408h-2016l-60 -168h1200z" />
<glyph unicode="&#x1234;" horiz-adv-x="1648" d="M1256 1564l4 -3l381 -381q7 -6 7 -15q0 -10 -7 -16l-8 -6q-128 -72 -251 -195q-74 -73 -139 -156.5t-158 -212.5q-5 -8 -17 -24q-95 -134 -164 -223t-146 -166q-120 -120 -244 -189q-10 -6 -26 -6q-28 0 -41 16l-381 380q-3 3 -5 10q13 -6 29 -6q15 0 25 6q9 4 21 12 t20 13l216 -216l34 22l17 12l-216 216q43 30 80 63l109 -109l11 10q8 6 21 19l13 12l-110 108q19 17 27 26q26 25 45 46l108 -108l31 33l10 12l-109 108q32 37 64 79l216 -216l37 48l-215 216l60 82l109 -108l36 49l-109 109q10 13 28 39l32 44l108 -108l36 49l-109 109 l61 82l216 -215l27 36l9 12l-215 215l65 79l109 -109q4 4 12.5 15t16.5 18l10 13l-108 108l44 46l27 26l109 -109l11 12q7 5 20 18l13 11l-109 108q27 25 78 66l218 -218l11 9l22 14l18 12l-220 219q31 22 75 48zM144.5 481.5q-84.5 -59.5 -121.5 -59.5q-23 0 -23 23 q0 38 59.5 123t152.5 177q93 93 177.5 152.5t121.5 59.5q11 0 17 -6t6 -18q0 -38 -59 -121.5t-153 -177.5q-93 -93 -177.5 -152.5z" />
<glyph unicode="&#x1235;" horiz-adv-x="1534" d="M1434 1485q29 0 55 -17q21 -13 33 -35.5t12 -47.5q0 -29 -14 -51l-461 -770l-50 -529h-530l-22 479l-442 820q-15 24 -15 52q0 25 12 47t34 35q26 17 55 17q52 0 83 -45l406 -673h309l451 673q31 45 84 45zM633 856.5q-50 29.5 -79 80t-29 111.5q0 59 29 108.5t79 78.5 t109 29q61 0 112 -29t80 -78.5t29 -108.5q0 -61 -29 -111.5t-79.5 -80t-112.5 -29.5q-59 0 -109 29.5zM9 8v-7q0 -1 -1 -1h-7q-1 0 -1 1v7q0 1 1 1h7q1 0 1 -1zM5 7l-2 -1q0 -1 1 -1.5t1 -1.5h-2l0.5 -0.5t1.5 -0.5t1 0.5v0.5q0 1 -1 1.5t-1 1.5h1h1v1h-1z" />
<glyph unicode="&#x1236;" d="M1506 1506q30 -30 30 -73v-1331q0 -42 -30 -72t-72 -30h-1332q-42 0 -72 30t-30 72v1331q0 43 30 73t72 30h1332q42 0 72 -30zM521.5 411q39.5 -30 104.5 -56t149 -26q85 0 148.5 33.5t97 90.5t33.5 125q0 72 -34.5 120t-83 75.5t-125.5 60.5q-54 22 -84.5 38t-51 38.5 t-20.5 52.5q0 44 37 72.5t91 28.5q47 0 89 -16.5t70.5 -36t28.5 -21.5l67 126q0 3 -33.5 26.5t-90 43.5t-130.5 20q-80 0 -145 -32t-102 -88.5t-37 -125.5q0 -68 34 -115t82 -75.5t124 -60.5q56 -24 87 -41t52 -40t21 -54q0 -49 -35.5 -76t-87.5 -27q-53 0 -100.5 20 t-79.5 44t-32 26l-83 -116q0 -4 39.5 -34z" />
<glyph unicode="&#x1237;" d="M1506 1506q30 -30 30 -73v-1331q0 -42 -30 -72t-72 -30h-1332q-42 0 -72 30t-30 72v1331q0 43 30 73t72 30h1332q42 0 72 -30zM915 660q-11 19 -19 29.5t-10 12.5v2q66 27 105 91t39 141q0 83 -37 143t-102 89q-28 13 -66 18.5t-105 5.5h-273v-849h154v317h148l168 -317 h173zM838.5 1026q34.5 -33 34.5 -98q0 -63 -35.5 -98.5t-98.5 -35.5h-138v265h117q86 0 120.5 -33z" />
<glyph unicode="&#x1238;" d="M1506 1506q30 -30 30 -72v-1331q0 -43 -30 -73t-73 -30h-1331q-42 0 -72 30t-30 73v1331q0 42 30 72t72 30h1331q43 0 73 -30zM1156 1193l-140 -587q-7 -30 -10.5 -56.5t-4.5 -33.5h-2q-1 2 -3 27.5t-13 62.5l-150 587h-134l-153 -587q-9 -32 -12 -61t-4 -29h-2 q-1 7 -4.5 33.5t-9.5 56.5l-134 587h-159l213 -849h178l130 502q9 34 14.5 67.5t6.5 43.5h3q1 -10 6.5 -43.5t14.5 -67.5l131 -502h178l218 849h-158z" />
<glyph unicode="&#x1239;" d="M1506.5 1506.5q29.5 -29.5 29.5 -72.5v-1331q0 -43 -29.5 -73t-72.5 -30h-1331q-43 0 -73 30t-30 73v1331q0 43 30 72.5t73 29.5h1331q43 0 72.5 -29.5zM413 1193v-133h278v-716h155v716h278v133h-711z" />
<glyph unicode="&#x1240;" d="M1506 1506.5q30 -29.5 30 -72.5v-1331q0 -43 -30 -73t-73 -30h-1331q-42 0 -72 30t-30 73v1331q0 43 30 72.5t72 29.5h1331q43 0 73 -29.5zM661 477v716h-154v-849h521v133h-367z" />
<glyph unicode="&#x1241;" d="M1506 1506.5q30 -29.5 30 -72.5v-1331q0 -43 -30 -73t-73 -30h-1331q-42 0 -72 30t-30 73v1331q0 43 30 72.5t72 29.5h1331q43 0 73 -29.5zM924.5 395q97.5 51 151 147t53.5 228t-53.5 227t-151 145.5t-228.5 50.5h-290v-849h290q131 0 228.5 51zM893.5 984.5 q76.5 -75.5 76.5 -214.5q0 -142 -75.5 -217.5t-207.5 -75.5h-126v583h126q130 0 206.5 -75.5z" />
<glyph unicode="&#x1242;" d="M1506.5 1506q29.5 -30 29.5 -72v-1332q0 -42 -29.5 -72t-72.5 -30h-1331q-43 0 -73 30t-30 72v1332q0 42 30 72t73 30h1331q43 0 72.5 -30zM154.5 523q39.5 -30 104.5 -55.5t149 -25.5q86 0 149 33.5t96.5 90t33.5 124.5q0 72 -34.5 120.5t-83 76t-125.5 60.5 q-54 22 -85 38t-51 38t-20 52q0 45 36.5 73.5t91.5 28.5q48 0 89.5 -16.5t70 -36t28.5 -21.5l67 125q0 3 -33 27t-89.5 44t-131.5 20q-80 0 -145 -32t-102 -88.5t-37 -125.5t34 -115.5t81.5 -74.5t124.5 -61q56 -24 87 -41t52 -40t21 -54q0 -50 -35.5 -76.5t-87.5 -26.5 q-53 0 -100 20t-79.5 44t-32.5 26l-83 -117q0 -4 39.5 -34zM990.5 500.5q21.5 -21.5 60.5 -40t93 -18.5q80 0 143 39.5t99 112t36 167.5q0 94 -33 166.5t-94.5 112.5t-142.5 40q-64 0 -107.5 -22t-66 -48t-22.5 -30h-2q0 3 1 14.5t1 27.5v44h-139v-849h152v256q0 21 -1 34.5 t-1 17.5h2q0 -3 21.5 -24.5zM1227 897.5q42 -52.5 42 -138.5q0 -59 -20.5 -101.5t-55 -65t-77.5 -22.5q-48 0 -82.5 26.5t-52 69t-17.5 91.5q0 64 21.5 107.5t56 64.5t75.5 21q68 0 110 -52.5z" />
<glyph unicode="&#x2000;" horiz-adv-x="784" />
<glyph unicode="&#x2001;" horiz-adv-x="1569" />
<glyph unicode="&#x2002;" horiz-adv-x="784" />
<glyph unicode="&#x2003;" horiz-adv-x="1569" />
<glyph unicode="&#x2004;" horiz-adv-x="523" />
<glyph unicode="&#x2005;" horiz-adv-x="392" />
<glyph unicode="&#x2006;" horiz-adv-x="261" />
<glyph unicode="&#x2007;" horiz-adv-x="261" />
<glyph unicode="&#x2008;" horiz-adv-x="196" />
<glyph unicode="&#x2009;" horiz-adv-x="313" />
<glyph unicode="&#x200a;" horiz-adv-x="87" />
<glyph unicode="&#x202f;" horiz-adv-x="313" />
<glyph unicode="&#x205f;" horiz-adv-x="392" />
<glyph unicode="&#xe000;" horiz-adv-x="500" d="M0 0v0v0v0v0z" />
</font>
</defs>
</svg>
